<svg width="256" height="256" viewBox="0 0 256 256" fill="none" xmlns="http://www.w3.org/2000/svg">
<rect width="256" height="256" rx="10" fill="#0A0A0A"/>
<path d="M65.2518 165.951C64.2458 165.951 63.3945 165.562 62.698 164.785C62.0015 164.085 61.6532 163.191 61.6532 162.103C61.6532 161.481 62.0402 160.549 62.814 159.305C63.6653 158.061 64.3618 156.934 64.9036 155.924L91.8352 107.538C92.2221 106.839 92.2221 106.411 91.8352 106.256C91.5256 106.022 91.1 105.906 90.5582 105.906H65.3679C63.3558 105.906 61.808 106.217 60.7245 106.839C59.6411 107.46 58.5189 108.549 57.3581 110.103C57.0485 110.492 56.5455 111.23 55.849 112.318C55.2299 113.407 54.4947 114.417 53.6434 115.35C52.7921 116.205 51.9408 116.632 51.0895 116.632C50.5478 116.632 50.0448 116.438 49.5804 116.049C49.1935 115.661 49 115.194 49 114.65C49 114.028 49.1935 112.979 49.5804 111.502C50.0448 110.025 50.3156 109.054 50.393 108.587C50.9347 105.789 51.5539 102.836 52.2504 99.7265C53.0243 96.6173 53.4112 93.8969 53.4112 91.565C53.4112 90.6323 53.7595 90.0493 54.456 89.8161C55.1525 89.5052 55.7329 89.3886 56.1972 89.4664C57.2807 89.5441 58.8285 89.7384 60.8406 90.0493C62.9301 90.3602 65.2131 90.5934 67.6896 90.7489C69.7791 90.7489 72.2169 90.7877 75.0029 90.8655C77.7889 90.8655 80.4589 90.9043 83.0127 90.9821C85.644 90.9821 87.6948 90.9821 89.1652 90.9821C91.7965 90.9821 94.1182 90.9821 96.1303 90.9821C98.1424 90.9043 99.9224 90.8655 101.47 90.8655C103.095 90.7877 104.527 90.71 105.765 90.6323C106.152 90.6323 106.462 90.9432 106.694 91.565C106.926 92.1091 107.042 92.6921 107.042 93.3139C107.042 93.6248 106.849 94.13 106.462 94.8296C106.075 95.4514 105.572 96.2676 104.953 97.278C104.334 98.2885 103.598 99.4933 102.747 100.892L67.9218 162.103C67.5348 162.88 67.0318 163.697 66.4127 164.552C65.8709 165.484 65.484 165.951 65.2518 165.951Z" fill="white"/>
<path d="M111.806 167C110.645 167 109.368 166.883 107.975 166.65C106.582 166.495 105.886 165.99 105.886 165.135C105.886 164.202 106.389 163.58 107.395 163.269C108.401 162.958 109.523 162.725 110.761 162.57C115.173 161.948 119.12 160.743 122.602 158.955C126.085 157.09 128.793 154.913 130.728 152.426C132.74 149.861 133.746 147.257 133.746 144.614C133.746 141.738 133.05 139.251 131.657 137.152C130.264 134.976 128.019 133.033 124.924 131.323C121.906 129.613 117.959 128.019 113.083 126.543C110.375 125.688 108.517 124.833 107.511 123.978C106.582 123.123 106.118 121.879 106.118 120.247C106.118 119.158 106.35 117.604 106.815 115.583C107.279 113.484 107.782 111.308 108.324 109.054C108.943 106.722 109.523 104.662 110.065 102.874C110.607 101.009 110.916 99.8042 110.994 99.2601C111.458 97.2392 112.232 95.8012 113.315 94.9462C114.399 94.0912 115.56 93.5082 116.798 93.1973C118.191 92.8864 120.203 92.5366 122.834 92.148C125.543 91.6816 128.368 91.2152 131.308 90.7489C134.249 90.2825 136.842 89.8939 139.086 89.583C141.408 89.272 142.839 89.1166 143.381 89.1166C144 89.1166 144.465 89.3886 144.774 89.9327C145.161 90.4768 145.316 91.0598 145.239 91.6816C145.161 92.9253 144.774 94.3244 144.078 95.8789C143.381 97.3558 142.801 98.716 142.336 99.9596C141.717 101.592 140.673 102.952 139.202 104.04C137.809 105.129 136.184 105.75 134.327 105.906C133.088 105.984 131.502 106.061 129.567 106.139C127.71 106.139 125.775 106.178 123.763 106.256C121.828 106.333 120.087 106.411 118.539 106.489C117.069 106.489 116.024 106.528 115.405 106.605C114.863 106.683 114.437 106.955 114.128 107.422C113.818 107.81 113.586 108.277 113.431 108.821C113.277 109.287 113.199 109.676 113.199 109.987C113.199 110.375 113.315 110.686 113.547 110.919C113.78 111.152 114.051 111.308 114.36 111.386C118.694 112.085 122.486 113.057 125.736 114.3C128.987 115.466 132.005 116.71 134.791 118.031C139.899 120.441 143.536 123.511 145.703 127.242C147.87 130.973 148.953 134.898 148.953 139.018C148.953 143.371 147.638 147.568 145.006 151.61C142.375 155.652 138.893 158.877 134.559 161.287C133.166 162.064 131.231 162.88 128.755 163.735C126.278 164.668 123.569 165.445 120.629 166.067C117.688 166.689 114.747 167 111.806 167Z" fill="white"/>
<path d="M177.515 164.202C172.716 164.202 168.537 163.114 164.977 160.937C161.495 158.761 158.593 155.885 156.271 152.309C153.949 148.656 152.208 144.653 151.047 140.3C149.964 135.948 149.422 131.634 149.422 127.359C149.422 122.928 149.964 118.459 151.047 113.951C152.208 109.442 153.949 105.323 156.271 101.592C158.67 97.7833 161.727 94.7519 165.442 92.4978C169.234 90.1659 173.722 89 178.908 89C183.706 89 187.846 90.0882 191.329 92.2646C194.889 94.441 197.791 97.3558 200.035 101.009C202.357 104.584 204.098 108.549 205.259 112.901C206.42 117.176 207 121.413 207 125.61C207 130.04 206.42 134.51 205.259 139.018C204.175 143.526 202.434 147.685 200.035 151.493C197.713 155.302 194.695 158.372 190.98 160.704C187.266 163.036 182.777 164.202 177.515 164.202ZM179.256 158.489C181.578 158.489 183.435 157.051 184.828 154.175C186.298 151.299 187.343 147.529 187.962 142.865C188.659 138.124 189.007 133.072 189.007 127.709C189.007 123.667 188.736 119.703 188.194 115.816C187.73 111.852 186.995 108.277 185.989 105.09C184.983 101.903 183.744 99.3767 182.274 97.5112C180.804 95.568 179.062 94.5964 177.05 94.5964C174.729 94.5964 172.871 96.0732 171.478 99.0269C170.085 101.903 169.079 105.673 168.46 110.336C167.841 115 167.531 120.013 167.531 125.377C167.531 129.419 167.763 133.422 168.228 137.386C168.692 141.272 169.427 144.809 170.433 147.996C171.439 151.182 172.678 153.747 174.148 155.691C175.618 157.556 177.321 158.489 179.256 158.489Z" fill="#C23B3B"/>
</svg>
