<svg xmlns="http://www.w3.org/2000/svg" width="0" height="0">
  <symbol id="minus" fill="none" viewBox="0 0 24 24">
    <path stroke="currentColor" stroke-linecap="round" stroke-linejoin="round" stroke-width="1.5"
      d="M5 12h14" />
  </symbol>
  <symbol id="plus" fill="none" viewBox="0 0 24 24">
    <path stroke="currentColor" stroke-linecap="round" stroke-linejoin="round" stroke-width="1.5"
      d="M5 12h7m7 0h-7m0 0V5m0 7v7" />
  </symbol>
  <symbol id="spinner" fill="none" viewBox="0 0 24 24">
    <path stroke="currentColor" stroke-linecap="round" stroke-linejoin="round" stroke-width="1.5"
      d="m17 7 2.364-2.364M4.636 19.364 7 17M7 7 4.636 4.636m14.728 14.728L17 17" opacity=".4" />
    <path stroke="currentColor" stroke-linecap="round" stroke-linejoin="round" stroke-width="1.5"
      d="M18.657 12H22M2 12h3.343M12 5.343V2m0 20v-3.343" />
  </symbol>
  <symbol id="close" fill="none" viewBox="0 0 24 24">
    <path stroke="currentColor" stroke-linecap="round" stroke-linejoin="round" stroke-width="1.5"
      d="M6 18 18 6M6 6l12 12" />
  </symbol>
  <symbol id="file-upload" fill="none" viewBox="0 0 24 24">
    <path stroke="currentColor" stroke-linecap="round" stroke-linejoin="round" stroke-width="1.5"
      d="M14 2.5v2.3c0 1.12 0 1.68.218 2.108a2 2 0 0 0 .874.874C15.52 8 16.08 8 17.2 8h2.3M12 17v-6m0 0 2.5 2.5M12 11l-2.5 2.5M20 10.314V14c0 2.8 0 4.2-.545 5.27a5 5 0 0 1-2.185 2.185C16.2 22 14.8 22 12 22s-4.2 0-5.27-.545a5 5 0 0 1-2.185-2.185C4 18.2 4 16.8 4 14V9.778c0-2.591 0-3.887.469-4.891a5 5 0 0 1 2.418-2.418C7.89 2 9.187 2 11.778 2c1.133 0 1.699 0 2.233.119a5 5 0 0 1 1.604.664c.462.294.862.695 1.663 1.495l.379.379c.865.865 1.297 1.297 1.606 1.802.274.447.476.935.599 1.445.138.575.138 1.187.138 2.41" />
  </symbol>
  <symbol id="download" fill="none" viewBox="0 0 24 24">
    <path stroke="currentColor" stroke-linecap="round" stroke-linejoin="round" stroke-width="1.5"
      d="M21 15v4a2 2 0 0 1-2 2H5a2 2 0 0 1-2-2v-4m5-4 4 4m0 0 4-4m-4 4V3" />
  </symbol>
  <symbol id="file-download" fill="none" viewBox="0 0 24 24">
    <path stroke="currentColor" stroke-linecap="round" stroke-linejoin="round" stroke-width="1.5"
      d="M14 2.5v2.3c0 1.12 0 1.68.218 2.108a2 2 0 0 0 .874.874C15.52 8 16.08 8 17.2 8h2.3M12 11v6m0 0 2.5-2.5M12 17l-2.5-2.5M20 10.314V14c0 2.8 0 4.2-.545 5.27a5 5 0 0 1-2.185 2.185C16.2 22 14.8 22 12 22s-4.2 0-5.27-.545a5 5 0 0 1-2.185-2.185C4 18.2 4 16.8 4 14V9.778c0-2.591 0-3.887.469-4.891a5 5 0 0 1 2.418-2.418C7.89 2 9.187 2 11.778 2c1.133 0 1.699 0 2.233.119a5 5 0 0 1 1.604.664c.462.294.862.695 1.663 1.495l.379.379c.865.865 1.297 1.297 1.606 1.802.274.447.476.935.599 1.445.138.575.138 1.187.138 2.41" />
  </symbol>
  <symbol id="sun" fill="none" viewBox="0 0 24 24">
    <path stroke="currentColor" stroke-linecap="round" stroke-linejoin="round" stroke-width="1.5"
      d="M12 20v2m0-20v2m8 8h2M2 12h2m14 6 1.5 1.5m-15-15L6 6m12 0 1.5-1.5m-15 15L6 18m11-6a5 5 0 1 1-10 0 5 5 0 0 1 10 0" />
  </symbol>
  <symbol id="moon" fill="none" viewBox="0 0 24 24">
    <path stroke="currentColor" stroke-linecap="round" stroke-linejoin="round" stroke-width="1.5"
      d="M3 11.449C3 16.724 7.169 21 12.312 21c3.959 0 7.34-2.534 8.688-6.107a8.1 8.1 0 0 1-3.515.8c-4.571 0-8.277-3.8-8.277-8.489A8.6 8.6 0 0 1 10.945 2C6.45 2.678 3 6.65 3 11.449" />
  </symbol>
</svg>